HIERARCHY
ROOT pelvis
{
  OFFSET 0 100 0
  CHANNELS 6 Xposition Yposition Zposition Zrotation Xrotation Yrotation
  JOINT pelvis_right_femur
  {
    OFFSET -10.78128 -3.44521 -0.5502486
    CHANNELS 3 Zrotation Xrotation Yrotation
    JOINT right_femur_tibia
    {
      OFFSET -0.8047443 -44.0398 -0.1307829
      CHANNELS 3 Zrotation Xrotation Yrotation
      JOINT right_tibia_foot
      {
        OFFSET 3.006224 -47.83518 -5
        CHANNELS 3 Zrotation Xrotation Yrotation
        End Site
        {
          OFFSET 0 -5 15
        }
      }
    }
  }
  JOINT pelvis_left_femur
  {
    OFFSET 10.78128 -3.44521 -0.5502486
    CHANNELS 3 Zrotation Xrotation Yrotation
    JOINT left_femur_tibia
    {
      OFFSET 0.8047443 -44.0398 -0.1307829
      CHANNELS 3 Zrotation Xrotation Yrotation
      JOINT left_tibia_foot
      {
        OFFSET -4.370144 -48.10324 -4.275266
        CHANNELS 3 Zrotation Xrotation Yrotation
        End Site
        {
          OFFSET 0 -5 15
        }
      }
    }
  }
  JOINT pelvis_spine1
  {
    OFFSET 0 6.468898 -3.129235
    CHANNELS 3 Zrotation Xrotation Yrotation
    JOINT spine1
    {
      OFFSET 0 23.15396 4.99043
      CHANNELS 3 Zrotation Xrotation Yrotation
      JOINT spine2
      {
        OFFSET 0 20.79997 -5.064912
        CHANNELS 3 Zrotation Xrotation Yrotation
        JOINT neck
        {
          OFFSET 0 14.38658 9.616178
          CHANNELS 3 Zrotation Xrotation Yrotation
          End Site
          {
            OFFSET 0 20 0
          }
        }
      }
      JOINT right_manubrium
      {
        OFFSET -5.722621 16.35077 3.967754
        CHANNELS 3 Zrotation Xrotation Yrotation
        JOINT right_clavicle
        {
          OFFSET -13.16364 1.694482 -4.693211
          CHANNELS 3 Zrotation Xrotation Yrotation
          JOINT right_humerus
          {
            OFFSET -28.5034 -0.3100689 -2.792744
            CHANNELS 3 Zrotation Xrotation Yrotation
            JOINT right_radius
            {
              OFFSET -25.15693 0.02248979 -1.271978
              CHANNELS 3 Zrotation Xrotation Yrotation
              End Site
              {
                OFFSET -15 0 0
              }
            }
          }
        }
      }
      JOINT left_manubrium
      {
        OFFSET 5.722621 16.35077 3.967754
        CHANNELS 3 Zrotation Xrotation Yrotation
        JOINT left_clavicle
        {
          OFFSET 13.16364 1.694482 -4.693211
          CHANNELS 3 Zrotation Xrotation Yrotation
          JOINT left_humerus
          {
            OFFSET 29.39168 -1.063119 -2.237045
            CHANNELS 3 Zrotation Xrotation Yrotation
            JOINT left_radius
            {
              OFFSET 24.59957 -0.9528479 0.9047498
              CHANNELS 3 Zrotation Xrotation Yrotation
              End Site
              {
                OFFSET 15 -0 -0
              }
            }
          }
        }
      }
    }
  }
}
MOTION
Frames: 15
Frame Time: 0.0416666666667
925.4179 123.4999 2785.623 7.401473 -8.121755 37.45771 0.3151742 -6.062624 -7.01061 -0 25.38948 -0 -13.02953 1.828652 0.6963941 -5.782472 10.96028 -13.22606 -0 9.212257 -0 -3.703835 -19.30932 17.14866 1.137252 -3.589979 4.229243 0.3537262 15.8783 -7.593014 1.913015 22.91809 4.242302 1.47321 -20.13381 6.515313 -4.580744 -21.51573 11.78162 98.72577 13.42003 -24.39253 -0 0 6.194988 -23.4022 11.60138 10.08282 4.336453 -28.95717 -10.43049 -85.63434 15.85844 14.68936 0 0 -30.35774 10.86252 16.78981 1.888517
928.3178 122.483 2789.298 7.377246 -7.545689 37.81444 0.3375734 -7.426741 -7.417386 -0 21.64938 -0 -13.03975 0.03511214 0.6109926 -6.019142 12.16863 -13.33676 -0 9.025105 -0 -2.446816 -19.74858 17.29665 1.472513 -3.855748 4.57251 0.3864594 16.33164 -8.003439 2.00418 22.64067 3.799598 1.216507 -19.93744 6.280483 -5.408791 -21.87142 11.92216 100.163 13.11037 -25.67094 -0 0 6.124747 -23.25364 11.672 9.255358 3.982088 -29.64031 -10.99456 -84.84914 14.82293 14.41376 0 0 -33.01257 10.69801 16.71258 1.645208
931.1755 121.3327 2792.91 7.394619 -7.039827 38.12936 0.4439367 -8.454509 -7.586064 -0 18.70505 -0 -13.09399 -1.373073 0.4712583 -6.257967 13.06835 -13.30875 -0 9.280361 -0 -0.6413013 -19.76544 17.74896 1.759479 -4.026921 4.931042 0.4181012 16.72889 -8.339547 2.113194 22.39568 3.289807 0.9417505 -19.71713 6.021373 -6.222514 -22.34292 12.10913 101.4175 12.9765 -26.53325 -0 0 6.498253 -23.11044 11.70127 8.463367 3.591307 -29.9665 -11.39316 -84.36015 13.74636 14.62749 0 0 -34.61112 10.48397 16.71609 1.242624
934.0182 120.1111 2796.489 7.466358 -6.675615 38.4097 0.639097 -9.199906 -7.566045 -0 16.53325 -0 -13.23357 -2.34933 0.2708344 -6.459771 13.70662 -13.12921 -0 9.958239 -0 1.524081 -19.38658 18.39632 1.971427 -4.084434 5.258372 0.4614339 17.03299 -8.606371 2.224526 22.19879 2.749604 0.6537403 -19.52732 5.766531 -6.970241 -22.91788 12.33033 102.4222 13.02287 -26.95214 -0 0 7.295345 -22.97035 11.66937 7.737601 3.206263 -29.90179 -11.57209 -84.17338 12.70414 15.30075 0 0 -34.96769 10.29682 16.81762 0.6122586
936.8735 118.8669 2800.067 7.596878 -6.493592 38.65751 0.9089227 -9.702673 -7.434925 -0 15.00878 -0 -13.47282 -2.895608 0.02065762 -6.596397 14.13652 -12.80855 -0 11.00039 -0 3.779163 -18.70771 19.09418 2.088581 -4.026338 5.515274 0.5307377 17.20686 -8.81482 2.319892 22.05752 2.226762 0.3586785 -19.43227 5.548882 -7.60243 -23.57642 12.56398 103.1117 13.23468 -26.92783 -0 0 8.4622 -22.83255 11.55906 7.109433 2.873795 -29.45804 -11.48869 -84.2735 11.77223 16.35226 0 0 -34.0259 10.20602 17.01221 -0.2836964
939.7636 117.6344 2803.676 7.781618 -6.495662 38.87118 1.225198 -9.986274 -7.270123 -0 13.96559 -0 -13.79654 -3.073571 -0.2569889 -6.657372 14.40749 -12.38311 -0 12.30255 -0 5.861183 -17.86658 19.71767 2.103045 -3.867702 5.679223 0.6377329 17.22289 -8.977202 2.382296 21.97018 1.771139 0.06597504 -19.4881 5.397176 -8.076203 -24.2881 12.78457 103.4322 13.58735 -26.48951 -0 0 9.915469 -22.69519 11.36371 6.604838 2.633452 -28.69416 -11.12332 -84.62807 11.01294 17.66376 0 0 -31.87885 10.25869 17.27384 -1.439013
942.7023 116.4338 2807.339 8.009099 -6.650125 39.04799 1.553291 -10.06413 -7.125567 -0 13.25117 -0 -14.16832 -2.992035 -0.5386391 -6.650144 14.55855 -11.90674 -0 13.72369 -0 7.590885 -17.00001 20.19845 2.020877 -3.636135 5.748779 0.7876708 17.07045 -9.102779 2.399883 21.92712 1.424152 -0.2108527 -19.72575 5.328382 -8.359225 -25.01136 12.96964 103.3515 14.0554 -25.69346 -0 0 11.55211 -22.55268 11.09263 6.238622 2.509089 -27.70469 -10.48542 -85.19271 10.46492 19.10254 0 0 -28.75448 10.4708 17.5638 -2.801481
945.693 115.2737 2811.064 8.264235 -6.906402 39.18637 1.859966 -9.950673 -7.025344 -0 12.75451 -0 -14.54499 -2.775969 -0.8064678 -6.594278 14.61829 -11.43669 -0 15.10953 -0 8.897176 -16.21119 20.52631 1.860169 -3.365022 5.7414 0.9772993 16.75856 -9.195451 2.368352 21.91401 1.210565 -0.4554094 -20.14236 5.344408 -8.433302 -25.69772 13.10458 102.8661 14.61701 -24.61712 -0 0 13.26326 -22.39499 10.77016 6.010908 2.506908 -26.59951 -9.611539 -85.91623 10.1408 20.54472 0 0 -24.96947 10.82715 17.84257 -4.283163
948.731 114.153 2814.85 8.530726 -7.210302 39.2874 2.118558 -9.670773 -6.971672 -0 12.4077 -0 -14.8888 -2.535753 -1.048718 -6.513816 14.6095 -11.0218 -0 16.31856 -0 9.794039 -15.56134 20.72693 1.645776 -3.086976 5.686057 1.195691 16.31293 -9.254458 2.291205 21.91604 1.135422 -0.6516107 -20.70428 5.434119 -8.296687 -26.29997 13.18364 102.0033 15.25422 -23.34925 -0 0 14.94909 -22.20963 10.42889 5.907138 2.618998 -25.48206 -8.556967 -86.74623 10.03201 21.89249 0 0 -20.86592 11.28935 18.08041 -5.779717
951.8059 113.0631 2818.683 8.791755 -7.513272 39.35511 2.310732 -9.263495 -6.95638 -0 12.17472 -0 -15.17249 -2.350426 -1.256535 -6.431532 14.55359 -10.69741 -0 17.24063 -0 10.33961 -15.07872 20.83695 1.402862 -2.829346 5.614093 1.427455 15.76929 -9.2772 2.178004 21.92145 1.186569 -0.7872831 -21.35899 5.578893 -7.963533 -26.78105 13.20805 100.816 15.9509 -21.97842 -0 0 16.53083 -21.9853 10.10071 5.901357 2.82925 -24.43329 -7.384483 -87.63484 10.11742 23.08202 0 0 -16.75094 11.80826 18.26306 -7.192057
954.9045 111.9914 2822.543 9.029735 -7.775294 39.39595 2.425962 -8.780646 -6.96828 -0 12.04002 -0 -15.37855 -2.265608 -1.421229 -6.366058 14.47226 -10.48605 -0 17.80531 -0 10.60266 -14.77144 20.88846 1.151812 -2.612343 5.551869 1.656672 15.16584 -9.262281 2.041571 21.92333 1.340762 -0.8564065 -22.04975 5.758724 -7.460079 -27.11945 13.18301 99.37334 16.69101 -20.58351 -0 0 17.95673 -21.71464 9.81001 5.961267 3.11883 -23.50499 -6.15438 -88.54356 10.37195 24.08234 0 0 -12.85703 12.33585 18.39184 -8.442605
958.0129 110.9239 2826.408 9.226082 -7.964405 39.41808 2.460324 -8.282866 -6.995293 -0 12.00134 -0 -15.49627 -2.299439 -1.533699 -6.330905 14.38668 -10.40042 -0 17.98283 -0 10.64491 -14.6362 20.90346 0.9059806 -2.449214 5.517106 1.86988 14.53744 -9.211199 1.895269 21.91959 1.570462 -0.859245 -22.72692 5.956555 -6.818906 -27.30972 13.115 97.75017 17.4584 -19.22862 -0 0 19.20111 -21.39471 9.570859 6.053194 3.469719 -22.72188 -4.918083 -89.44553 10.77258 24.88826 0 0 -9.330776 12.8328 18.47964 -9.48157
961.1173 109.8481 2830.255 9.361379 -8.055534 39.43035 2.415607 -7.835713 -7.023552 -0 12.06612 -0 -15.51888 -2.450348 -1.585688 -6.334151 14.31561 -10.44627 -0 17.78082 -0 10.51602 -14.66249 20.89475 0.6720944 -2.347359 5.518676 2.057394 13.9125 -9.128344 1.751133 21.91163 1.849093 -0.8008759 -23.35362 6.160151 -6.073438 -27.35894 13.01013 96.01854 18.23796 -17.96255 -0 0 20.25828 -21.02529 9.387799 6.145757 3.866191 -22.08843 -3.715844 -90.32497 11.30126 25.51145 0 0 -6.244343 13.27081 18.54537 -10.28403
964.2043 108.7554 2834.06 9.41585 -8.029903 39.44152 2.299057 -7.506794 -7.035738 -0 12.24891 -0 -15.44189 -2.703691 -1.571932 -6.378191 14.27358 -10.62396 -0 17.23874 -0 10.25576 -14.83376 20.86938 0.4521447 -2.309536 5.558394 2.213214 13.3123 -9.019927 1.61899 21.90274 2.153935 -0.6891949 -23.90629 6.362032 -5.254207 -27.2817 12.87365 94.2431 19.0174 -16.82106 -0 0 21.13481 -20.60646 9.258332 6.212023 4.29477 -21.59668 -2.577502 -91.17459 11.94513 25.97274 0 0 -3.618066 13.63128 18.60902 -10.8421
967.2606 107.6429 2837.8 9.369996 -7.875185 39.45941 2.123711 -7.363827 -7.010029 -0 12.56817 -0 -15.26262 -3.036785 -1.492436 -6.459473 14.26956 -10.9287 -0 16.42094 -0 9.898899 -15.12776 20.83266 0.2455759 -2.334697 5.633327 2.334232 12.75185 -8.892666 1.506311 21.89665 2.467045 -0.5332386 -24.37253 6.558429 -4.387243 -27.09575 12.70994 92.47986 19.78865 -15.82998 -0 0 21.84268 -20.13677 9.175623 6.230545 4.743391 -21.2323 -1.524797 -91.99234 12.69512 26.29689 0 0 -1.443299 13.90234 18.68808 -11.15662
